<svg id="Object" xmlns="http://www.w3.org/2000/svg" viewBox="0 0 59.78 59.78"><defs><style>.cls-1{fill:#fff;}</style></defs><title>fakosArtboard 1</title><path class="cls-1" d="M15.23,6a22.27,22.27,0,1,0,30.83,6.49A22.27,22.27,0,0,0,15.23,6ZM38.36,41.47a20.07,20.07,0,1,1,5.86-27.78A20.07,20.07,0,0,1,38.36,41.47Z"/><path class="cls-1" d="M42.77,40.09H45.2a0,0,0,0,1,0,0v20a.65.65,0,0,1-.65.65H43.43a.65.65,0,0,1-.65-.65v-20a0,0,0,0,1,0,0Z" transform="matrix(0.84, -0.55, 0.55, 0.84, -20.39, 32.2)"/></svg>